<?xml version="1.0" encoding="UTF-8" standalone="no"?>
<!-- Created with Inkscape (http://www.inkscape.org/) -->

<svg
   version="1.1"
   id="svg2"
   width="874.46326"
   height="424.62561"
   viewBox="0 0 874.46326 424.62561"
   xmlns="http://www.w3.org/2000/svg"
   xmlns:svg="http://www.w3.org/2000/svg">
  <defs
     id="defs6" />
  <g
     id="g8"
     transform="translate(-76.134132,-129.76305)">
    <path
       style="fill:#000000;stroke:none;stroke-width:0.868076"
       d="m 374.80771,266.741 c -4.80985,1.32616 -20.14142,6.33835 -28.39074,10.73168 -2.47835,-10.40822 -1.43925,-22.27047 -2.73877,-32.98686 -2.72316,-22.45538 -9.46376,-45.19028 -21.86681,-64.23758 -12.28067,-18.85981 -32.45735,-34.27681 -55.25734,-37.07897 -8.42728,-1.03561 -16.79204,0.40193 -25.17418,0.6068 -48.81188,1.1962 -96.80793,22.38331 -130.13359,58.17406 -14.697037,15.78421 -27.508178,35.71174 -33.910529,56.42488 -2.957219,9.56705 -0.607356,23.48319 8.736344,28.95119 12.333528,7.21804 27.631105,1.01564 40.721835,1.43144 -7.19321,13.65135 -13.70335,44.35777 1.73954,54.59413 11.0263,7.30919 26.53905,5.30306 39.06,5.30306 -1.11546,4.31173 -1.8976,8.54448 -1.7023,13.02113 1.21965,27.847 32.85058,24.19414 51.18261,18.22958 0,11.6357 -2.3499,28.99546 7.97326,37.28903 4.66503,3.7475 15.0038,2.36898 17.94833,6.39078 2.62591,3.58603 3.20665,9.48113 4.85166,13.61315 3.07038,7.71545 7.37084,14.88057 12.06365,21.7019 17.68443,25.70543 45.05744,44.59561 72.6171,58.37543 57.10719,28.5536 120.20845,37.11284 183.16386,37.11284 64.55008,0 128.12531,-8.72589 186.63617,-37.98089 27.69508,-13.84754 54.8233,-33.2629 72.33585,-59.24355 6.90989,-10.25197 9.06531,-22.86161 15.46041,-32.86183 3.00182,-4.6937 10.53758,-5.10431 14.29462,-9.70858 7.41942,-9.09135 5.55047,-23.80262 5.55047,-34.68828 18.97526,6.17462 48.73113,9.28233 51.06538,-18.22958 0.36287,-4.26918 -0.58854,-8.883 -1.5851,-13.02113 12.92823,0 29.90781,2.27437 40.7188,-6.55743 14.70432,-12.01244 4.81089,-39.67018 0.0808,-54.20782 6.29093,1.4384 12.60966,2.5721 19.09764,2.60335 5.8005,0.0277 11.75115,0.39323 17.36153,-1.36547 9.88736,-3.10078 13.88919,-13.37184 13.88919,-22.93977 0,-15.78335 -11.84923,-33.50336 -20.59073,-46.008 -31.54761,-45.14857 -84.92816,-73.92442 -140.00318,-76.42447 -12.3996,-0.56338 -25.01967,-2.07123 -37.32725,0.61373 -21.56212,4.70411 -40.17625,22.55434 -50.8449,41.08774 -9.95943,17.30248 -16.06545,37.49738 -18.46657,57.29296 -1.2665,10.44209 -0.32292,21.97272 -2.73877,32.1188 l -23.438,-8.68076 c 5.68157,-5.72929 10.82664,-11.88656 14.53246,-19.09765 21.94495,-42.71016 -17.49172,-78.21445 -52.72777,-95.2643 -41.45839,-20.05951 -90.98296,-24.25526 -136.28781,-21.13504 -22.21316,1.52956 -44.97671,4.77354 -65.97372,12.59836 -39.13368,14.58456 -84.13036,46.73023 -64.71152,94.25214 5.00967,12.26069 15.03102,18.83477 23.02425,28.74731 m 255.23379,-7.04542 c 5.86124,-8.32918 13.31714,-14.60276 15.2217,-25.17418 5.26053,-29.18382 -33.45823,-47.0766 -55.15316,-55.18876 -47.3726,-17.71306 -107.39653,-18.81032 -155.38548,-2.97143 -22.59684,7.45765 -62.73232,24.96671 -54.8962,55.55596 3.17802,12.40653 13.1036,18.17316 20.1732,27.77841 -5.28571,1.21184 -12.83101,5.14333 -18.22959,3.9289 -5.68415,-1.27781 -11.14261,-8.38646 -14.7538,-12.61052 -16.88058,-19.74612 -18.17922,-45.58698 -1.65714,-65.97286 30.26108,-37.33678 88.67389,-45.74236 133.60111,-47.71027 51.36749,-2.24919 113.67359,10.06968 152.76821,45.35345 19.16103,17.29293 26.02318,44.19371 11.78759,66.59439 -3.00265,4.72495 -7.36734,11.44905 -12.64263,13.83017 -5.41245,2.44364 -14.91874,-3.15545 -20.83381,-3.41326 m -335.94522,47.74414 1.73614,-6.07654 h -0.86805 c -8.71809,16.79378 -30.85401,16.96653 -35.79771,-2.60423 -2.22401,-8.80052 4.00271,-17.06287 8.0193,-24.30609 -6.88645,2.85337 -13.0411,7.18072 -20.83381,7.41337 -18.77127,0.56163 -21.98663,-21.57082 -15.71131,-35.19178 2.46621,-5.35169 6.9203,-8.57744 10.50285,-13.02113 -6.7762,0.99656 -13.01332,2.2162 -19.96572,1.65543 -32.06497,-2.59035 -17.2426,-41.35512 -10.41691,-58.94839 h -0.86808 c -9.07833,19.19487 -30.04669,54.68092 0.86808,67.31575 4.32735,1.76915 8.40384,2.1268 13.02113,2.13025 -1.70144,21.56041 1.32642,49.66607 30.38264,44.27186 0.0269,9.7476 1.60507,25.2497 12.15304,29.38607 4.53049,1.77696 9.24675,0.49482 13.8892,0.12842 -3.85946,5.47931 -10.5853,13.85971 -16.57156,16.99778 -10.38999,5.44718 -26.35041,2.84469 -31.27935,-8.31701 -3.24832,-7.35435 -4.20061,-15.51771 -4.95409,-23.43804 -0.30906,-3.24399 0.8533,-8.17207 -1.03998,-11.00892 -1.79343,-2.68844 -6.69892,-2.1702 -9.52449,-2.88463 -6.03575,-1.52608 -12.05064,-3.96969 -16.30854,-8.71372 -11.98292,-13.35101 -4.25792,-32.22991 -7.1295,-47.70682 h -1.73617 c -4.59818,22.29129 -9.73026,50.54367 16.49344,61.90851 4.77702,2.07038 9.7155,2.65807 14.75728,1.46098 5.09561,17.23998 -1.21096,34.19523 17.3615,45.84391 4.27616,2.68237 9.23894,3.59298 13.88922,5.37252 v 0.86808 c -20.28692,15.06633 -38.27084,31.10575 -65.10564,20.83381 v -1.73614 c 14.57322,-4.22579 24.4389,-16.53512 33.85492,-27.77841 -6.48191,3.34469 -11.99506,8.7936 -18.22959,12.7008 -6.89078,4.31866 -15.90835,9.77279 -24.30524,9.81794 -8.11649,0.0433 -8.40991,-10.80234 -5.06693,-16.25994 2.79432,-4.56171 10.23112,-7.95936 14.6149,-10.88825 12.52286,-8.36826 28.93381,-19.67579 30.38263,-36.17009 -16.11929,18.45093 -32.90006,32.15091 -58.16104,33.87663 -7.33332,0.50088 -14.5111,1.7405 -21.70119,-0.70662 -2.78921,-0.94968 -6.69537,-3.3907 -5.50255,-6.94286 1.42183,-4.2336 12.12371,-7.01926 15.91878,-8.7936 11.94905,-5.5852 25.14031,-13.46992 33.85491,-23.51009 -15.70609,6.76838 -30.29555,19.97094 -47.74413,22.38853 -16.69812,2.31343 -7.31882,-23.14027 -1.18293,-29.74199 3.60774,-3.88116 9.71837,-5.84648 14.20406,-8.5705 10.54365,-6.40379 22.24355,-13.76159 30.38264,-23.13941 -23.72625,8.0922 -43.27937,21.57513 -69.44604,21.70102 -4.79323,0.0227 -20.745073,2.23355 -22.819772,-3.80131 -2.043363,-5.94285 15.384462,-14.93697 19.347492,-17.61324 22.42612,-15.14359 46.76233,-33.71431 72.05023,-43.69024 v -0.86803 l -23.43801,9.22763 -51.21645,28.14649 -19.965731,12.97424 c 3.574646,-13.06973 12.388214,-25.58129 20.220951,-36.45914 30.73663,-42.68761 79.95928,-68.57795 132.56028,-68.57795 21.2583,0 42.73797,0.95053 60.7618,13.69041 25.85388,18.27385 37.01994,54.98476 39.08858,85.27017 0.44009,6.45152 4.23186,19.21048 0.82205,24.98927 -2.44536,4.14418 -9.8049,6.06959 -13.86489,8.26583 -10.33185,5.58778 -19.77475,14.10882 -30.38264,18.82941 m 647.58414,-46.008 -25.17421,-15.91441 -45.1399,-24.69153 -24.3061,-9.74242 v 0.86809 c 25.26534,9.96723 49.57231,28.67338 72.05023,43.69282 3.87857,2.59206 21.35467,12.02457 18.94142,17.7426 -2.44365,5.81002 -17.49434,3.69366 -22.4137,3.66936 -26.20459,-0.12591 -45.72239,-13.59669 -69.44604,-21.70102 7.46112,8.62431 17.97437,16.05592 27.77841,21.82254 5.36818,3.15805 12.86315,5.67807 17.01949,10.40908 6.29876,7.1677 15.04288,32.00072 -2.26221,29.11872 -17.17919,-2.8603 -31.31927,-15.575 -46.87606,-22.28697 8.05314,10.7381 23.616,18.87978 35.59109,24.44848 3.46622,1.61202 13.93175,4.0921 14.28331,8.62519 0.78647,10.14519 -20.99961,7.3691 -26.43636,6.93245 -22.38071,-1.79952 -47.25367,-12.87701 -58.16104,-33.92958 h -0.86808 c 2.32645,26.47541 32.13701,28.91644 44.49926,46.95678 3.96625,5.78834 3.26832,16.46738 -5.43586,16.35888 -8.4186,-0.10602 -17.42315,-6.01142 -24.30613,-10.31968 -6.02529,-3.77177 -11.44121,-8.29619 -17.3615,-12.19644 l 20.11332,21.18885 13.74163,8.3257 c -19.32944,7.3986 -55.55249,0.91842 -59.89721,-23.43804 22.64635,-7.66423 25.1742,-28.50585 25.1742,-49.48028 4.89855,0.90888 9.1469,0.81513 13.88919,-0.9028 28.59961,-10.3596 21.29388,-39.71183 18.22959,-62.46669 -5.23016,5.58172 -1.45663,17.14187 -1.77001,24.3061 -0.91062,20.78954 -12.77287,32.98426 -33.82108,32.98686 0,12.42737 0.36632,30.45468 -7.75018,40.71881 -11.1973,14.16004 -32.20731,2.12071 -36.52167,-12.07232 14.5316,-1.30906 17.11498,-18.43706 17.36153,-30.38263 3.52177,0.65366 6.84475,1.05903 10.41688,0.48613 22.7323,-3.6442 20.10899,-27.43207 19.96575,-44.75799 37.30464,-0.10248 34.6145,-50.8362 12.15305,-69.446 10.83356,18.63151 20.23829,58.86592 -13.02113,59.02824 -5.80309,0.0287 -10.84834,-0.44531 -16.49344,-1.73528 4.84387,6.60605 10.21464,10.6426 12.24073,19.09767 3.19191,13.32061 -1.30819,29.12912 -17.44919,29.01454 -7.47064,-0.0529 -14.42306,-3.94021 -20.83378,-7.31267 2.94624,5.31348 6.50535,10.35526 7.52969,16.49341 1.78995,10.71813 -5.90553,26.22111 -18.81468,23.07346 -6.32307,-1.54171 -11.43603,-7.6981 -16.49342,-11.44124 -6.1295,-4.53482 -13.31802,-8.37606 -19.96573,-12.13222 -5.51577,-3.11551 -22.2644,-7.99756 -24.03006,-14.3484 -2.70145,-9.71812 1.50349,-24.83476 3.1268,-34.63187 4.98275,-30.08401 17.7912,-63.05005 46.9455,-77.14585 10.36831,-5.01227 21.63156,-6.69286 32.98686,-7.77796 58.05342,-5.54787 114.43923,20.2765 149.1987,66.69422 8.41686,11.23898 17.87974,24.54917 21.81214,38.19531 M 497.46208,172.68382 c 11.62524,-1.37242 24.03006,0.10602 35.59106,1.34379 29.71595,3.18149 60.73402,9.72766 85.93945,26.6369 16.25472,10.90475 27.91036,28.61696 14.16614,46.42553 -2.61465,3.38808 -6.32569,7.75018 -10.69383,8.79099 -5.31263,1.26479 -12.94909,-1.88285 -18.22958,-2.8846 -11.47683,-2.17715 -23.11945,-3.65201 -34.72301,-4.89421 -35.30374,-3.77961 -70.59622,-3.78049 -105.90518,0 -13.05323,1.3976 -26.18461,3.18322 -39.06339,5.75879 -5.49578,1.099 -12.91782,4.10341 -18.22956,1.41583 -25.33305,-12.82146 -26.0362,-39.78734 -4.3404,-55.79553 27.7845,-20.50046 62.59257,-22.9163 95.4883,-26.79749 M 250.9287,357.33559 c -3.6468,8.88909 -6.56353,17.59327 -8.93163,26.91032 -0.86982,3.42109 -0.47208,11.88054 -3.07368,14.59068 -10.39087,10.82401 -19.35737,-6.48632 -16.26442,-17.15756 1.16495,-4.02006 6.00532,-5.9819 9.17208,-8.21808 6.87341,-4.85601 12.28848,-11.32837 19.09765,-16.12536 m 537.33856,11.28499 c 4.50272,3.22488 10.5584,6.10169 14.2677,10.20855 5.27095,5.83608 2.18321,22.767 -8.06268,19.89454 -2.71274,-0.76043 -2.68411,-3.44018 -2.72838,-5.79788 -0.13975,-7.36475 -4.87769,-17.63147 -3.47664,-24.30521"
       id="path2446" />
    <ellipse
       style="fill:#263ba8;fill-opacity:1;stroke:none;stroke-width:2.33487;stroke-linejoin:round;stroke-dasharray:none;stroke-opacity:1;paint-order:fill markers stroke"
       id="path2801"
       ry="146.17163"
       rx="267.10928"
       cy="400.08038"
       cx="516.32617" />
    <path
       style="fill:#fff84f;fill-opacity:1;stroke:#000000;stroke-width:4.1197;stroke-linejoin:round;stroke-dasharray:none;stroke-opacity:1;paint-order:fill markers stroke"
       d="m 371.6503,253.253 c -11.61396,-12.41627 -16.18532,-22.98391 -16.23012,-37.51929 -0.0458,-14.82501 6.19839,-26.7961 20.93076,-40.12812 27.87886,-25.22893 71.36741,-37.20417 134.78616,-37.11548 27.09697,0.038 36.18817,0.74172 51.24289,3.96705 50.64701,10.85064 91.17114,34.41279 103.04702,59.91509 8.09088,17.37442 4.86568,38.18058 -8.23049,53.09635 -6.12378,6.97456 -6.33991,11.61459 -16.3895,7.90797 l -12.5415,-3.84656 8.665,-7.02608 c 12.06323,-9.78155 12.26848,-26.20741 6.04582,-38.4049 -13.77353,-26.99831 -75.45085,-49.96047 -134.28162,-49.99237 -55.59424,-0.0302 -110.70985,18.94005 -125.42414,43.1696 -8.3051,13.67575 -6.47748,25.90039 6.16883,41.2617 4.5354,5.50912 10.54397,10.23698 10.08224,10.69868 -0.4617,0.46173 -7.22763,3.21541 -10.78599,3.96839 -7.61684,1.6118 -8.73271,-1.02239 -17.08536,-9.95203 z"
       id="path3639" />
    <path
       style="fill:#ffffff;fill-opacity:1;stroke:#ffffff;stroke-width:0.25;stroke-linejoin:round;stroke-dasharray:none;stroke-opacity:1;paint-order:fill markers stroke"
       d="M 197.55649,372.50918 C 192.5679,371.37771 189.5,370.23127 189.5,369.49859 c 0,-0.36907 0.84375,-0.94457 1.875,-1.27888 6.0607,-1.96476 13.76307,-7.22811 20.20594,-13.80756 5.25358,-5.36495 12.00914,-13.37792 11.4404,-13.56981 -0.62753,-0.21172 -4.80179,2.49681 -10.21593,6.62878 -12.76655,9.74319 -24.10798,15.3432 -31.34272,15.47596 -4.90562,0.09 -7.47959,-2.83237 -7.43997,-8.44708 0.042,-5.94913 1.98781,-8.94029 8.53336,-13.11764 14.1095,-9.00463 19.90972,-13.20459 25.38635,-18.38236 6.86144,-6.48701 10.91911,-12.94888 12.31225,-19.60736 0.38585,-1.84419 0.61684,-3.43779 0.5133,-3.54133 -0.10354,-0.10354 -1.83509,1.57506 -3.84787,3.73022 -11.71437,12.54296 -21.4982,20.01573 -32.29199,24.66422 -8.76449,3.77456 -16.96655,5.36432 -30.12812,5.8396 -9.06373,0.3273 -13.15768,-0.29339 -16.36964,-2.48183 -1.86124,-1.26814 -3.1238,-3.52063 -2.75781,-4.92016 0.51057,-1.95242 4.12811,-4.27861 10.75142,-6.91349 10.86588,-4.32264 22.41196,-10.95295 30.55772,-17.54768 4.2465,-3.43793 8.62558,-7.83159 8.2149,-8.24226 -0.42804,-0.42805 -6.92668,2.94513 -16.89659,8.77032 -16.41678,9.59195 -24.92016,13.08821 -32.08816,13.19342 -3.60201,0.0529 -3.9329,-0.0342 -5.37816,-1.41525 -1.65128,-1.5779 -2.52641,-3.93731 -2.53089,-6.82344 -0.009,-5.47979 4.8598,-17.34389 8.68758,-21.17168 1.20597,-1.20596 4.55758,-3.38036 7.98665,-5.18142 6.28951,-3.30346 16.02943,-9.36715 22.52182,-14.02118 4.56051,-3.26918 14.16698,-12.20876 13.39577,-12.46583 -0.67454,-0.22485 -8.90945,3.00857 -23.59461,9.26439 -23.79369,10.136 -31.93746,12.07565 -51.5,12.26609 -9.389786,0.0914 -11.050619,-0.0113 -13.125838,-0.81203 C 89.831774,274.60239 88.5,273.1841 88.5,271.4575 c 0,-2.52335 5.365188,-7.38327 14.0247,-12.70394 2.87391,-1.76582 9.6128,-6.2399 14.9753,-9.9424 29.61779,-20.44942 45.301,-29.94776 58.5,-35.42981 2.07109,-0.8602 3.82152,-1.90538 3.90975,-2.33452 0.1936,-0.94161 0.46312,-1.0318 -13.77242,4.60851 -8.92862,3.53763 -13.11445,5.65757 -35.75,18.10581 -14.31748,7.87378 -29.69172,16.73538 -34.819754,20.06985 -5.050333,3.28395 -9.291508,5.86173 -9.424833,5.72841 -0.749548,-0.74955 3.597405,-10.30428 8.284097,-18.20869 3.688354,-6.22065 12.21393,-18.38068 17.24521,-24.59684 1.67108,-2.06464 6.08475,-6.88021 9.80814,-10.70128 26.42587,-27.11908 58.45132,-43.2627 96.51981,-48.6544 8.79587,-1.24577 36.94799,-1.24925 45.80745,-0.006 7.6404,1.07247 16.18176,3.22736 21.7906,5.49751 28.49555,11.53343 46.91395,43.3522 51.66387,89.25211 0.43497,4.20319 1.11617,9.49069 1.51378,11.75 0.97385,5.5336 0.94208,12.2933 -0.0697,14.8219 -1.04572,2.61351 -2.6683,3.77748 -10.71878,7.6892 -4.14557,2.01433 -10.6547,5.8929 -16.9209,10.08258 -9.73488,6.50891 -16.07257,10.21673 -16.06095,9.39635 0.003,-0.21021 0.32971,-1.45095 0.72608,-2.7572 0.62385,-2.05591 0.62467,-2.375 0.006,-2.375 -0.393,0 -1.10536,0.61875 -1.58301,1.375 -5.8389,9.24452 -15.77003,13.09752 -24.11092,9.35435 -5.23196,-2.34796 -8.81904,-7.04271 -10.31735,-13.50329 -1.23494,-5.32498 -0.019,-9.8631 5.03343,-18.78651 1.56013,-2.75542 2.7385,-5.10796 2.6186,-5.22786 -0.1199,-0.1199 -2.89753,1.0459 -6.17251,2.59067 -7.42739,3.5034 -12.78159,4.9367 -16.85213,4.51124 -9.99487,-1.04467 -15.89268,-8.73533 -15.9615,-20.8136 -0.0513,-9.00759 2.30924,-14.8654 8.85081,-21.96346 2.34134,-2.54052 4.25699,-4.7818 4.25699,-4.98061 0,-0.19882 -2.75625,0.0313 -6.125,0.51136 -14.37694,2.0488 -23.25076,0.30454 -28.57443,-5.61666 -3.27955,-3.64765 -4.39717,-6.97987 -4.679,-13.95063 -0.34523,-8.53877 1.54965,-17.65697 6.42589,-30.92145 2.62195,-7.13231 2.73566,-7.57855 1.93114,-7.57855 -0.73027,0 -8.00973,14.98416 -10.93074,22.5 -3.18662,8.19925 -4.52833,13.63602 -4.87402,19.75 -0.46772,8.27223 1.24513,13.60948 5.97137,18.60678 4.59688,4.86052 11.94699,8.22384 19.47979,8.91372 l 3.375,0.30909 0.01,7.8352 c 0.0146,11.55819 1.09844,17.83173 4.22408,24.4502 4.2594,9.01919 12.28563,13.28013 22.93853,12.17751 3.13243,-0.32422 3.32799,-0.28426 3.33615,0.68155 0.005,0.56427 0.23249,3.16345 0.50606,5.77595 1.21488,11.60184 4.70168,18.7472 10.69026,21.90711 2.37628,1.25386 2.93423,1.33787 8.41571,1.26714 l 5.8707,-0.0757 -1.57484,2.19292 c -2.63017,3.66246 -8.49714,9.76767 -11.54088,12.00952 -3.12689,2.3031 -7.55618,3.96563 -11.87568,4.45752 -6.0864,0.69309 -13.8547,-1.79354 -17.91602,-5.73492 -4.99588,-4.84834 -7.80952,-14.90251 -8.52739,-30.47146 l -0.37799,-8.19791 -1.55758,-1.39169 c -1.04874,-0.93706 -2.34379,-1.49376 -3.96429,-1.70412 -8.81387,-1.14418 -16.45457,-4.53617 -20.80651,-9.23678 -3.07619,-3.32266 -4.8933,-6.69268 -6.21241,-11.52158 -0.76857,-2.81352 -0.86791,-5.06307 -0.73968,-16.75 0.0815,-7.425 0.007,-14.90625 -0.16479,-16.625 -0.28294,-2.82552 -0.4219,-3.125 -1.45002,-3.125 -1.05522,0 -1.21707,0.42295 -2.24816,5.875 -2.08691,11.03483 -2.65961,16.92303 -2.37076,24.375 0.14924,3.85 0.63301,8.45909 1.07506,10.24241 1.95106,7.8711 6.70979,14.51907 13.63902,19.05378 5.32448,3.48451 9.27404,4.70341 15.241,4.70363 3.44032,1.2e-4 4.94002,0.18404 5.10987,0.62666 0.51195,1.33412 1.74423,9.64956 2.27823,15.37352 0.9995,10.71368 2.46021,16.02215 5.78852,21.03646 3.5563,5.3578 8.9688,9.12229 17.13466,11.91746 3.08607,1.05637 5.54539,2.10621 5.46514,2.33298 -0.24607,0.69541 -16.39022,12.38029 -20.76258,15.02763 -5.499,3.3295 -11.56107,6.12729 -16.13332,7.44594 -4.90353,1.41419 -14.82507,1.79624 -19.44351,0.74871 z"
       id="path5942" />
    <path
       style="fill:#ffffff;fill-opacity:1;stroke:#ffffff;stroke-width:0.707107;stroke-linejoin:round;stroke-dasharray:none;stroke-opacity:1;paint-order:fill markers stroke"
       d="m 770.03928,335.14169 c -3.94445,-1.98108 -13.47347,-11.42887 -13.40442,-13.29017 0.0168,-0.45377 2.06956,-1.77964 4.56161,-2.94636 5.7945,-2.71286 9.24727,-8.79319 11.16021,-19.65309 l 1.52035,-8.63118 h 6.28308 c 10.25798,0 18.26213,-5.73755 21.50308,-15.41383 0.88556,-2.64398 1.61011,-10.35707 1.61011,-17.1402 V 245.7339 l 6.35494,-0.7163 c 8.20773,-0.92513 15.79687,-6.70209 19.34664,-14.72693 3.50736,-7.92899 3.75563,-23.04759 0.54583,-33.24119 -2.34502,-7.4473 -10.96828,-20.97989 -13.36884,-20.97989 -0.67984,0 0.33093,3.87952 2.24616,8.62115 9.90616,24.52516 7.28998,43.23358 -7.27212,48.0395 -3.18491,1.05112 -9.68238,2.26286 -16.14577,1.43293 l -10.30237,-1.32287 2.24332,3.0809 c 9.91596,13.61822 11.93279,13.79565 11.93279,24.51717 0,9.78204 -1.12891,11.81146 -5.51002,16.18996 -4.08651,4.08409 -6.54937,4.25795 -13.08147,4.16795 -4.73341,-0.0652 -9.60709,-2.12976 -13.54213,-4.16451 -3.3811,-1.74832 -6.44677,-2.87945 -6.8126,-2.51362 -0.36583,0.36583 0.96863,3.88925 2.96547,7.82982 5.65471,11.15903 4.09363,21.73673 -4.1669,28.23446 -6.65456,5.23447 -9.53047,4.24677 -28.1331,-9.66205 -3.64107,-2.72236 -14.06981,-8.76812 -23.17497,-13.43503 -21.32381,-10.92964 -21.45143,-11.15924 -18.05546,-32.4817 6.13332,-38.50963 14.72353,-59.84997 30.5959,-76.00822 11.40502,-11.61045 22.26421,-17.07667 40.03288,-20.15145 43.26808,-7.48734 89.65386,4.35726 126.91677,32.40817 13.64216,10.26959 24.06769,19.25694 36.44524,35.90579 7.74941,10.42359 20.32228,33.28057 18.47227,33.28057 -0.44173,0 -8.70521,-4.34359 -14.69024,-8.14002 -18.34634,-11.63742 -51.7071,-30.71546 -65.73979,-36.44814 -14.69944,-6.00507 -14.26181,-5.87073 -14.26181,-4.37788 0,0.58397 5.24714,3.60685 11.6603,6.71751 11.1276,5.39738 70.05524,42.99945 76.72805,49.16883 7.60755,7.03358 -0.0223,11.23821 -19.4623,10.02423 -15.78259,-0.98559 -26.92723,-4.23556 -52.06326,-14.80055 -9.97645,-4.19323 -17.34803,-8.33116 -17.67767,-8.33116 -5.16393,0 16.56908,16.32059 32.61754,25.32778 13.35342,7.49459 16.33092,11.51271 18.89428,21.09684 2.1744,8.12983 -0.19436,15.14108 -4.52267,16.22741 -4.68807,1.17664 -17.55776,-4.78996 -33.28674,-13.7496 -7.47705,-4.2591 -14.78236,-8.19147 -16.23403,-8.73858 -2.30152,-0.8674 -2.44041,-0.62291 -1.08488,1.9099 2.52708,4.7219 15.14122,13.25143 31.89329,21.56586 12.11899,6.01494 15.6716,8.41795 15.6716,10.60044 0,4.96293 -9.02667,6.83304 -24.35404,5.0456 -15.67797,-1.82834 -29.15464,-6.48444 -39.60907,-13.68468 -7.01194,-4.8293 -17.35417,-16.20051 -17.35417,-19.08078 0,-0.63599 2.70469,-1.86628 6.01041,-2.734 15.1403,-3.97417 22.47553,-13.92648 23.4118,-31.76472 0.55225,-10.52165 -1.39169,-29.71718 -3.19174,-31.51724 -2.06412,-2.06411 -1.49446,7.63803 -1.63158,22.08862 -0.0824,8.68557 -2.30486,12.66717 -3.21026,14.89771 -4.05899,9.99967 -10.69013,16.94362 -21.53908,18.36524 l -9.34284,1.22426 -0.87258,13.28368 c -0.97759,14.88243 -4.75681,25.75918 -10.52742,30.29835 -4.23048,3.32769 -12.07741,3.60161 -17.99758,0.62827 z"
       id="path5944" />
  </g>
  <g
     id="layer1"
     transform="translate(-76.134132,-129.76305)">
    <g
       id="g5825"
       transform="matrix(2.5181559,0,0,2.5181559,-466.72061,-905.46272)">
      <path
         d="m 382.93698,561.73502 c -0.63647,-0.3464 -1.49954,-0.95142 -1.91794,-1.34449 l -0.76073,-0.71467 -1.42649,0.68921 c -1.68108,0.81221 -5.80324,0.94435 -8.05727,0.25829 -1.68139,-0.51177 -4.17255,-2.59833 -4.95392,-4.14933 -1.55773,-3.09205 -0.87216,-6.41095 1.85032,-8.95751 2.69041,-2.51657 5.53622,-3.49076 9.65134,-3.30388 3.19525,0.14511 3.47017,-0.12985 1.79989,-1.80012 -0.89606,-0.89607 -1.24331,-1.00767 -3.1355,-1.00767 -1.59814,0 -2.37691,0.17735 -3.12834,0.71242 -1.36421,0.97141 -2.85844,0.78907 -3.0133,-0.36769 -0.0635,-0.474 -0.25736,-1.00919 -0.43091,-1.18931 -0.17354,-0.18012 -0.31553,-0.97745 -0.31553,-1.77185 0,-1.38024 0.0727,-1.48011 1.63745,-2.24972 1.41198,-0.69448 2.13585,-0.8026 5.25708,-0.78524 2.97352,0.0166 3.9273,0.15767 5.34326,0.79062 3.75583,1.67891 5.52646,4.68624 5.39892,9.16986 -0.0216,0.75839 -0.13427,3.72249 -0.25044,6.58686 l -0.21121,5.20797 0.91219,0.71753 c 0.79639,0.62644 0.89875,0.9281 0.80627,2.37602 l -0.10593,1.65849 -1.89599,0.052 c -1.26665,0.0348 -2.28012,-0.15704 -3.05322,-0.57781 z m 3.39794,-1.52222 c 0,-0.27321 -0.1727,-0.60349 -0.38379,-0.73394 -0.21108,-0.13046 -0.68183,-0.91098 -1.04611,-1.7345 -0.59054,-1.33501 -0.62367,-1.80558 -0.30566,-4.34173 0.47651,-3.80023 0.45241,-9.70219 -0.0464,-11.3671 -1.12312,-3.74864 -7.03517,-5.79725 -12.25592,-4.24685 l -1.75287,0.52055 0.36924,1.20308 c 0.42243,1.37641 0.43453,1.38037 2.09638,0.686 0.68066,-0.2844 1.90184,-0.51622 2.71373,-0.51517 3.81949,0.005 5.78018,1.64514 6.06445,5.07305 l 0.15945,1.9227 -1.51205,-0.31012 c -2.84894,-0.5843 -7.19587,-0.31663 -9.04117,0.55673 -4.37923,2.07262 -5.88976,6.11085 -3.56955,9.54277 2.05566,3.0406 7.82381,3.93677 11.54928,1.79435 1.50002,-0.86262 1.6428,-0.839 2.37005,0.39214 0.8311,1.40694 4.59095,2.68292 4.59095,1.55804 z m -12.84133,-3.36519 c -0.71115,-0.18887 -1.75826,-0.77802 -2.32691,-1.30922 -2.17538,-2.03211 -0.83515,-5.52647 2.71401,-7.07616 1.5236,-0.66526 4.79551,-0.64766 6.42835,0.0346 l 1.29757,0.54216 -0.22252,2.99129 c -0.25631,3.44559 -0.55864,3.86217 -3.41943,4.71174 -1.96559,0.58371 -2.61329,0.59901 -4.47107,0.1056 z m 5.01357,-2.0846 c 0.71627,-0.33265 0.92847,-0.67656 0.93054,-1.50818 10e-4,-0.5925 0.0939,-1.5334 0.20542,-2.09088 0.18756,-0.93783 0.10381,-1.04251 -1.12036,-1.40019 -2.603,-0.76054 -6.13925,0.80637 -6.53348,2.89498 -0.33044,1.75067 0.72727,2.53518 3.41803,2.53518 1.1946,0 2.58953,-0.19391 3.09985,-0.43091 z m 22.34559,2.06836 c -2.54962,-5.25805 -3.09014,-6.41903 -5.01548,-10.77271 -2.75149,-6.22183 -3.03807,-7.02389 -2.82004,-7.89261 0.22011,-0.877 0.29145,-0.89779 3.06279,-0.89264 1.56058,0.003 3.01615,0.11925 3.23459,0.25855 0.21845,0.13929 0.97179,1.64941 1.6741,3.3558 0.70232,1.7064 1.62415,3.87818 2.04852,4.82618 0.42437,0.94799 1.05824,2.38292 1.40859,3.18872 0.68305,1.57094 1.10004,1.82613 1.40823,0.86181 0.10604,-0.3318 0.31944,-0.91352 0.47421,-1.29272 1.14288,-2.8001 3.44807,-9.71905 3.44807,-10.34928 0,-0.7459 0.99784,-1.11976 3.69909,-1.38594 l 2.47135,-0.24352 0.23475,0.9353 c 0.226,0.90046 -0.9495,4.13167 -0.9495,4.13167 l -0.28479,1.05142 c -10e-4,0.005 -0.28479,1.05141 -0.28479,1.05141 0,0 -0.4949,1.02556 -0.75171,1.87876 -0.25681,0.8532 -0.73397,2.17178 -1.06035,2.93018 -0.78139,1.81566 -2.3846,6.15578 -2.3846,6.45545 0,0.12967 -0.45154,1.21227 -1.00343,2.40578 -0.55189,1.19351 -1.27982,2.82931 -1.61761,3.63511 -0.61314,1.46262 -0.61727,1.46508 -2.44493,1.46508 h -1.83075 z m 6.45767,0.92073 c 1.75043,-3.99514 3.68137,-9.07146 6.28376,-16.51961 l 0.96358,-2.75781 -1.04462,-0.11047 c -1.50031,-0.15866 -1.92792,0.0986 -2.30035,1.38414 -0.18156,0.62667 -1.05837,3.15606 -1.94845,5.62086 -0.89008,2.46479 -1.93678,5.37342 -2.326,6.46362 -0.58193,1.62998 -0.84793,1.98218 -1.49706,1.98218 -0.51602,0 -0.87445,-0.2686 -1.03503,-0.77564 -0.13511,-0.42659 -0.85764,-2.09421 -1.60562,-3.70581 -0.74799,-1.61159 -2.05981,-4.59779 -2.91517,-6.63598 l -1.5552,-3.70581 h -1.88129 c -1.03471,0 -1.80547,0.12269 -1.71279,0.27264 0.0927,0.14996 0.86166,1.89514 1.70887,3.87818 3.98885,9.33668 8.42365,18.34064 8.94825,18.16761 0.23027,-0.076 1.09297,-1.6771 1.91712,-3.5581 z m 21.10877,1.65188 c -4.69518,-2.35005 -6.90459,-5.76435 -7.51052,-11.60639 -0.48862,-4.71092 2.5834,-10.60773 6.50368,-12.48399 2.78475,-1.3328 3.41997,-1.49274 5.90779,-1.48754 3.64304,0.008 5.96326,0.97346 8.40936,3.50061 3.06526,3.16681 4.20322,8.83702 1.88756,9.40526 -3.70178,0.90839 -10.61225,2.15315 -13.75899,2.47838 -1.75055,0.18092 -1.80154,0.21621 -1.59424,1.10307 0.30598,1.30899 2.36271,3.33249 3.90437,3.84129 2.1053,0.69481 5.4129,-0.0309 7.65454,-1.6794 0.80274,-0.59034 1.62871,-1.07335 1.83549,-1.07335 0.58548,0 3.62494,3.23178 3.62494,3.85431 0,0.74286 -2.06865,2.52136 -3.90657,3.35863 -3.15079,1.43535 -4.52498,1.73995 -7.81414,1.7321 -2.86365,-0.007 -3.50952,-0.12526 -5.14327,-0.94298 z m 7.96986,-0.90123 c 2.41859,-0.50603 5.81186,-1.98545 6.52509,-2.84483 0.33865,-0.40805 0.24946,-0.67191 -0.4705,-1.39186 l -0.88836,-0.88837 -1.04346,0.74301 c -2.51284,1.7893 -7.67745,2.48437 -9.87953,1.32962 -1.62806,-0.85373 -3.24141,-2.74593 -3.91626,-4.59311 -0.94168,-2.57757 -0.82819,-2.70766 2.80865,-3.21945 1.74678,-0.24582 3.71891,-0.57313 4.38251,-0.72737 0.6636,-0.15424 2.29243,-0.45801 3.61963,-0.67505 1.3272,-0.21704 3.16448,-0.57254 4.08285,-0.79001 l 1.66976,-0.39539 -0.21522,-1.39163 c -0.33201,-2.14682 -1.8148,-4.87692 -3.22874,-5.94476 -2.142,-1.61768 -2.81853,-1.87694 -5.409,-2.07286 -4.92911,-0.37279 -8.74026,1.82899 -10.69136,6.17661 -0.82853,1.84621 -0.97268,2.6119 -0.96387,5.11957 0.0113,3.20439 0.43249,4.80082 1.92115,7.28102 1.10722,1.84469 3.56063,3.57748 6.02551,4.25567 2.17224,0.59768 2.93527,0.60161 5.67115,0.0292 z m -9.81841,-12.82865 c -1.14747,-1.14747 1.19057,-5.6374 3.57861,-6.8723 1.56791,-0.8108 5.14858,-0.65518 6.54275,0.28435 2.23641,1.50712 3.53791,4.47122 2.12754,4.84537 -1.10462,0.29304 -6.1372,1.14143 -10.61145,1.78887 -0.76451,0.11063 -1.50136,0.0898 -1.63745,-0.0463 z m 5.09583,-2.22366 c 1.1376,-0.18039 2.80844,-0.42424 3.713,-0.54189 0.90455,-0.11764 1.72614,-0.34576 1.82575,-0.50694 0.38175,-0.61768 -0.5964,-1.65064 -2.11068,-2.22895 -1.49186,-0.56975 -1.68016,-0.57067 -3.4371,-0.0169 -1.89776,0.59822 -2.95415,1.62409 -3.36245,3.26531 -0.1754,0.70508 -0.10421,0.7805 0.55084,0.58352 0.41375,-0.12442 1.68304,-0.37381 2.82064,-0.55421 z m -84.63037,12.54675 c -1.66952,-0.26543 -5.01423,-1.59719 -6.37744,-2.53929 -2.53391,-1.75116 -4.04652,-3.89767 -5.0005,-7.0961 -1.01416,-3.40019 0.95222,-8.98908 4.26505,-12.12222 2.15801,-2.04095 3.81003,-2.9355 6.54242,-3.54264 4.80455,-1.06757 10.90397,1.84787 13.18277,6.30119 0.67242,1.31407 0.83203,2.14915 0.83203,4.35316 0,2.7892 -0.64074,5.09512 -1.50828,5.42803 -0.74089,0.28431 -8.184,-1.19298 -12.97023,-2.5743 -0.6636,-0.19151 -1.78827,-0.49574 -2.49927,-0.67606 l -1.29273,-0.32787 v 1.28964 c 0,1.41518 0.69214,3.05832 1.63489,3.88129 1.5668,1.36769 6.00479,2.56434 7.45935,2.01132 0.52125,-0.19818 1.39912,-0.36032 1.95084,-0.36032 0.86146,0 1.1092,0.23124 1.75431,1.63745 0.69942,1.52462 0.98375,3.30955 0.58993,3.70338 -0.62354,0.62354 -6.08436,1.02743 -8.56314,0.63334 z m 6.51863,-1.81089 c 0.39393,-0.24938 0.409,-0.4931 0.0796,-1.28745 -0.40529,-0.9773 -0.41464,-0.97984 -3.61357,-0.97984 -2.88818,0 -3.40934,-0.1034 -5.23899,-1.03946 -1.53328,-0.78444 -2.27962,-1.44036 -3.04203,-2.67352 -1.13299,-1.83258 -1.5309,-4.34358 -0.93339,-5.89024 0.47289,-1.2241 0.33238,-1.24061 9.4768,1.1134 3.77666,0.97221 7.13037,1.76766 7.4527,1.76766 0.66371,0 1.01098,-1.47747 1.01718,-4.32758 0.0106,-4.83794 -4.50403,-8.56944 -10.338,-8.54482 -6.04991,0.0255 -11.03125,5.38331 -11.03125,11.86488 0,4.84933 3.21495,8.45242 8.75082,9.80732 2.08312,0.50984 6.72688,0.62853 7.42016,0.18965 z m -4.27791,-12.80636 c -5.97066,-1.57768 -6.37744,-1.7343 -6.37744,-2.45548 0,-1.0345 1.01915,-2.30791 2.57846,-3.22172 2.6115,-1.53045 6.5227,-1.02122 8.49685,1.10625 1.32015,1.42268 1.67957,2.29068 1.67957,4.05611 v 1.57393 l -1.29272,-0.0285 c -0.711,-0.0157 -2.99912,-0.47945 -5.08472,-1.03054 z m 4.65381,-1.342 c 0,-0.89965 -2.76199,-3.10286 -2.77318,-3.11453 -0.28521,-0.2975 -0.84645,-0.34473 -0.84645,-0.34473 0.008,-0.0146 -2.00328,-0.39688 -3.53296,0.34218 -2.27914,1.10116 -2.22675,1.57766 0.23149,2.10518 0.67821,0.14554 1.85362,0.44185 2.61202,0.65847 1.29381,0.36954 3.47142,0.90245 4.05053,0.99125 0.1422,0.0218 0.25855,-0.26522 0.25855,-0.63782 z m 101.2034,14.5171 c -0.29879,-0.57778 -0.54325,-1.35932 -0.54325,-1.73675 0,-0.37742 -0.13798,-0.7715 -0.30663,-0.87574 -0.16865,-0.10423 -0.38399,-0.69511 -0.47854,-1.31307 -0.17148,-1.12089 -2.8559,-10.84713 -3.3547,-12.1548 -0.14464,-0.3792 -0.45091,-1.38753 -0.6806,-2.24072 -0.22969,-0.8532 -0.55763,-1.82064 -0.72875,-2.14987 -0.17112,-0.32923 -0.31113,-1.13966 -0.31113,-1.80096 0,-0.9828 0.18573,-1.29841 1.01706,-1.72831 1.39371,-0.72072 3.67005,-0.69612 3.95357,0.0427 0.17661,0.46023 0.44829,0.29986 1.42492,-0.8411 1.65425,-1.93262 4.51663,-3.24439 7.20007,-3.29963 2.63077,-0.0542 4.06482,0.60763 6.15214,2.83915 1.383,1.47854 3.34892,4.78198 3.34892,5.62736 0,0.15618 0.32572,1.01913 0.72381,1.91766 0.39809,0.89853 0.86348,1.98273 1.03418,2.40933 0.17071,0.4266 0.4655,1.16345 0.6551,1.63745 0.81252,2.0313 1.00996,2.49569 1.71341,4.03003 0.48884,1.06623 0.5281,1.76937 0.45753,2.74899 -0.10437,1.44909 -0.14936,1.14619 -1.83063,1.70768 -2.37458,0.79303 -4.09842,1.51174 -4.34674,0.7347 -0.10605,-0.3318 -0.32143,-0.91353 -0.47864,-1.29273 -0.1572,-0.37919 -0.69906,-1.8529 -1.20413,-3.2749 -0.50507,-1.42199 -1.08532,-3.05083 -1.28944,-3.61963 -0.20412,-0.5688 -0.50139,-1.18155 -0.6606,-1.36167 -0.15921,-0.18013 -0.28947,-0.60883 -0.28947,-0.95268 0,-0.34385 -0.13745,-0.89455 -0.30544,-1.22378 -0.16798,-0.32923 -0.65985,-1.41293 -1.09302,-2.40823 -1.15407,-2.6517 -1.65191,-2.98165 -4.35117,-2.88387 -1.48623,0.0538 -3.55799,1.99421 -3.55799,3.33235 0,0.53379 0.29107,1.83405 0.64683,2.88947 0.35576,1.05542 1.22046,3.78047 1.92156,6.05567 0.7011,2.27519 1.41835,4.58647 1.59389,5.13616 0.46279,1.44917 0.39772,3.65543 -0.11174,3.78887 -0.237,0.0621 -0.97386,0.28053 -1.63745,0.48545 -0.6636,0.20491 -1.7765,0.47457 -2.47312,0.59922 -1.16139,0.20783 -1.31167,0.13942 -1.80981,-0.82387 z m 3.42111,-1.32688 c 1.51473,-0.3601 1.53634,-0.38454 1.21961,-1.37972 -0.16867,-0.52998 -0.88156,-2.82513 -1.5842,-5.10032 -0.70265,-2.2752 -1.73483,-5.50969 -2.29374,-7.18777 -1.1897,-3.57195 -1.0828,-4.12971 1.21362,-6.33192 3.20018,-3.0689 6.61053,-2.80947 8.63677,0.65702 0.70281,1.20237 5.04573,12.2127 5.04573,12.79213 0,0.0873 0.22898,0.70671 0.50883,1.3765 l 0.50884,1.21781 1.6457,-0.60461 c 1.72713,-0.63451 1.77464,-0.7626 0.96757,-2.60862 -0.24868,-0.5688 -1.52744,-3.7489 -2.8417,-7.06689 -2.72515,-6.87997 -3.69687,-8.596 -5.56921,-9.83505 -1.84498,-1.22095 -3.45596,-1.41081 -5.77681,-0.68081 -2.2232,0.69928 -3.94242,2.06983 -4.76144,3.79579 -0.70001,1.47516 -1.25114,1.51457 -2.38225,0.17032 -0.75666,-0.89924 -0.98652,-0.98989 -1.76223,-0.69497 -0.93551,0.35568 -0.9637,0.87795 -0.16782,3.108 0.2583,0.72375 1.46702,4.89683 2.77082,9.56616 0.17205,0.6162 0.46795,1.66331 0.65755,2.32691 0.1896,0.66359 0.48555,1.7107 0.65766,2.3269 1.14951,4.1156 1.45399,4.79715 2.0358,4.55702 0.31979,-0.13199 0.8917,-0.31373 1.2709,-0.40388 z m -134.61572,-5.18112 c -0.474,-0.0871 -1.01695,-0.27076 -1.20655,-0.40804 -0.1896,-0.13729 -1.0205,-0.46294 -1.84644,-0.72369 -0.82595,-0.26075 -1.58386,-0.68815 -1.68426,-0.94979 -0.1004,-0.26163 0.1717,-1.27846 0.60467,-2.25963 1.73525,-3.93234 2.06422,-4.71501 2.06422,-4.91113 0,-0.21866 1.8181,-4.48465 2.61984,-6.14722 0.82684,-1.7146 0.62096,-3.24707 -0.58794,-4.37635 -0.96472,-0.90119 -1.30313,-1.00013 -3.42077,-1.00013 h -2.35013 l -2.22646,4.56763 c -1.22455,2.5122 -2.70729,5.57595 -3.29498,6.80835 -1.26014,2.64253 -1.84454,3.44727 -2.50341,3.44727 -0.26632,0 -1.43313,-0.46295 -2.59291,-1.02877 -2.0798,-1.01467 -2.10897,-1.04877 -2.12885,-2.48872 -0.0111,-0.80298 0.10937,-1.61983 0.26766,-1.81523 0.1583,-0.1954 1.83206,-3.38025 3.71948,-7.07744 3.35575,-6.57344 9.10852,-17.71632 9.18504,-17.79103 0.0212,-0.0207 0.76824,-0.13309 1.66012,-0.24978 1.14771,-0.15016 1.75928,-0.0745 2.09274,0.25898 0.25913,0.25913 0.77043,0.52793 1.13622,0.59733 1.25053,0.23726 0.99744,1.94022 -0.8384,5.64126 l -1.70742,3.44217 2.2949,0.36188 c 1.26219,0.19903 2.87927,0.64456 3.5935,0.99006 1.69582,0.82034 4.24243,3.67319 4.55632,5.10423 0.50372,2.29655 0.20506,5.17343 -0.77915,7.50525 -0.20006,0.474 -1.02086,2.56821 -1.824,4.65381 -0.80313,2.0856 -1.59186,3.93936 -1.75274,4.11948 -0.16087,0.18012 -0.29249,0.67513 -0.29249,1.10002 0,0.42489 -0.15513,0.8684 -0.34473,0.98558 -0.1896,0.11718 -0.34472,0.49755 -0.34472,0.84528 0,0.49357 -0.85538,1.24112 -1.14856,1.00377 -0.0319,-0.0258 -0.4458,-0.11825 -0.9198,-0.2054 z m 2.5333,-6.73676 c 3.26021,-8.48709 3.41019,-8.95955 3.41804,-10.76769 0.0193,-4.43447 -3.96877,-7.44492 -9.21366,-6.95515 -1.87302,0.1749 -2.25331,0.12253 -2.25331,-0.31033 0,-0.28641 0.94576,-2.4632 2.10169,-4.83732 1.15593,-2.37412 2.04791,-4.35476 1.98218,-4.40143 -0.29957,-0.21266 -2.5237,-1.19633 -2.57409,-1.13844 -0.0573,0.0658 -2.40949,4.63012 -9.41995,18.27889 -2.12647,4.14005 -3.81498,7.57255 -3.75224,7.62779 0.0627,0.0552 0.75818,0.42515 1.54542,0.82204 1.09539,0.55225 1.50438,0.62288 1.74253,0.30092 0.17116,-0.23139 1.52094,-2.96454 2.99951,-6.07368 3.76023,-7.90699 3.62554,-7.70173 5.4002,-8.2294 2.8818,-0.85685 6.36277,0.36502 7.63146,2.67876 0.83339,1.5199 0.65511,3.6171 -0.52959,6.22956 -0.46679,1.02934 -1.647,3.80817 -2.62271,6.1752 -1.64347,3.987 -1.7301,4.33579 -1.17732,4.73999 0.32817,0.23997 0.86813,0.43631 1.1999,0.43631 0.33177,0 0.69909,0.15513 0.81627,0.34473 0.11718,0.18959 0.32025,0.34095 0.45126,0.33633 0.13101,-0.005 1.1455,-2.37029 2.25441,-5.25708 z m 122.75225,-24.76222 c -0.15972,-0.25844 -1.05043,-0.30485 -2.76573,-0.14412 -2.02911,0.19015 -2.68431,0.12911 -3.30871,-0.30824 -0.42822,-0.29994 -1.13399,-0.54534 -1.56837,-0.54534 -0.43439,0 -1.05916,-0.13854 -1.38839,-0.30786 -0.32923,-0.16933 -1.96024,-0.73662 -3.62448,-1.26065 -5.15002,-1.62161 -10.27079,-5.00625 -13.0127,-8.60092 -0.89512,-1.17351 -1.42486,-2.79641 -1.30881,-4.00966 l 0.11107,-1.16124 3.83372,0.4253 4.55904,0.54221 1.51296,0.20998 -1.86265,-0.87932 -1.55098,-0.96265 c -2.42921,-1.50773 -4.24564,-4.04413 -5.73451,-7.11851 -1.68598,-3.4814 -2.31517,-5.47822 -2.40518,-7.63317 l -0.076,-1.8202 6.72217,0.10057 c 6.44781,0.0965 10.72224,0.48889 11.66381,1.07082 0.24323,0.15032 0.59679,1.42196 0.78569,2.82587 0.1889,1.40391 0.49002,2.82192 0.66914,3.15115 0.17913,0.32923 0.32569,0.91306 0.32569,1.2974 0,0.38435 0.13458,0.96818 0.29907,1.29741 1.37259,2.74729 1.81732,3.4184 2.54796,3.84494 0.46026,0.26869 1.10418,0.38594 1.43093,0.26056 0.52456,-0.20129 0.57227,-0.62161 0.40769,-3.59108 -0.42945,-7.74847 -0.46603,-7.14243 0.43883,-7.27046 0.44846,-0.0635 0.98365,0.0529 1.18931,0.25855 0.20565,0.20565 1.1573,0.37462 2.11478,0.3755 2.05113,0.002 10.52704,1.20775 12.05583,1.7152 l 1.06101,0.35219 0.0531,8.79021 c 0.0292,4.83463 -0.0776,8.79022 -0.23742,8.79022 -0.15978,0 -0.39013,0.73686 -0.5119,1.63746 -0.51349,3.79788 -1.34944,5.27137 -4.17465,7.35847 -1.71707,1.26847 -2.00012,1.3658 -3.37332,1.15987 -0.94889,-0.14229 -1.58466,-0.0862 -1.73244,0.15297 -0.30468,0.49298 -2.84041,0.4902 -3.14551,-0.003 z m 4.22406,-1.53541 c 4.11849,-0.94306 5.49921,-2.35987 6.50503,-6.67505 0.69167,-2.9674 1.24594,-10.11488 1.12413,-14.49606 l -0.10996,-3.95541 -1.55127,-0.28814 c -0.8532,-0.15848 -4.0333,-0.63616 -7.0669,-1.06151 -6.21481,-0.87141 -5.97667,-0.9545 -5.37009,1.87389 1.45726,6.795 -1.26371,10.51176 -4.96593,6.7833 -1.69835,-1.71039 -2.64996,-4.0195 -3.5518,-8.61861 l -0.62519,-3.18828 -1.70639,-0.22655 c -0.93851,-0.1246 -4.45988,-0.34273 -7.82528,-0.48473 -5.15312,-0.21744 -6.11662,-0.18168 -6.10453,0.22654 0.0384,1.29502 2.39385,7.26134 3.55798,9.01225 3.39386,5.1045 7.68892,7.30484 16.59416,8.50113 2.2752,0.30564 4.33993,0.68622 4.58829,0.84573 0.32806,0.21069 0.39481,0.82317 0.24406,2.23908 -0.39819,3.73978 -0.53466,4.20975 -1.32725,4.57088 -1.77185,0.80731 -6.499,-2.49358 -7.94717,-5.54937 -0.83018,-1.75179 -0.28841,-1.59041 -7.96808,-2.37349 -2.0856,-0.21266 -4.37516,-0.47816 -5.08791,-0.59 -1.28487,-0.20162 -1.29295,-0.19554 -0.94771,0.7125 0.91629,2.41005 2.13759,3.95007 4.61603,5.82073 3.50543,2.6458 10.41218,5.44972 15.72574,6.38414 1.23239,0.21673 2.93879,0.5306 3.79199,0.69748 2.28451,0.44685 2.82603,0.43078 5.40805,-0.16045 z m -8.03038,-6.9021 c 0.11509,-0.29991 0.20924,-1.19964 0.20924,-1.99939 v -1.45411 l -2.00293,-0.41369 c -2.28414,-0.47178 -4.20214,-0.53912 -4.20214,-0.14752 0,0.67434 2.29454,2.94009 3.73962,3.6927 1.92853,1.0044 1.99093,1.0133 2.25621,0.32201 z M 341.634,510.63801 c -1.53545,-2.06115 -4.9397,-7.35058 -4.9397,-7.67516 0,-0.11853 -0.4266,-0.86653 -0.948,-1.66222 -0.5214,-0.79568 -1.12507,-1.7544 -1.3415,-2.13047 -0.55316,-0.96118 -1.25478,-0.80736 -7.25756,1.59106 -5.60706,2.24031 -6.50851,2.3349 -6.84747,0.71856 -0.1067,-0.50876 -0.33867,-1.19266 -0.51549,-1.51977 -0.17682,-0.32711 -0.28877,-1.68058 -0.24877,-3.00773 l 0.0727,-2.41298 2.94123,-1.25191 c 1.61767,-0.68856 3.48416,-1.48389 4.14776,-1.76741 0.6636,-0.28353 1.5168,-0.63406 1.896,-0.77895 0.3792,-0.14491 1.07727,-0.42456 1.55127,-0.62146 1.90341,-0.79069 6.4875,-2.4637 8.27343,-3.01947 1.0428,-0.32451 2.16536,-0.72642 2.49459,-0.89312 0.32923,-0.16671 0.8355,-0.3031 1.12504,-0.3031 0.28955,0 0.79581,-0.1392 1.12504,-0.30932 0.32923,-0.17013 1.76205,-0.65426 3.18404,-1.07585 1.422,-0.42159 2.97327,-0.88975 3.44727,-1.04036 0.474,-0.15062 1.9477,-0.5308 3.2749,-0.84487 3.52978,-0.83526 5.04112,-1.21838 6.22956,-1.57914 0.58226,-0.17675 1.46508,-0.32137 1.96183,-0.32137 0.49674,0 0.99905,-0.15513 1.11623,-0.34473 0.30391,-0.49174 2.43582,-0.4271 2.84213,0.0862 0.37013,0.46757 0.83729,3.88311 0.90656,6.62803 l 0.0433,1.71566 -1.37891,0.28957 c -0.75839,0.15926 -1.9616,0.37314 -2.67379,0.47529 -0.71219,0.10215 -1.38063,0.32447 -1.48543,0.49404 -0.1048,0.16957 -0.51941,0.30831 -0.92136,0.30831 -0.40195,0 -1.20721,0.14462 -1.78947,0.32137 -1.16583,0.3539 -3.04241,0.85492 -5.26331,1.40523 l -1.44684,0.35851 0.46621,1.28435 c 0.84817,2.33658 1.9765,4.68396 4.22124,8.78181 1.31264,2.39627 2.17363,4.36295 2.10843,4.8161 -0.11952,0.83068 -1.51448,1.49668 -5.2811,2.52137 -1.1376,0.30948 -2.33773,0.70493 -2.66696,0.87877 -0.32923,0.17385 -0.8851,0.31609 -1.23527,0.31609 -0.35017,0 -0.74299,0.10631 -0.87293,0.23625 -0.44092,0.44093 -2.80382,1.13225 -3.88777,1.13746 -0.90314,0.004 -1.29862,-0.2897 -2.42716,-1.80462 z m 9.02173,-1.75878 c 3.03359,-0.96146 5.55747,-1.77008 5.60862,-1.79694 0.0512,-0.0268 -1.40174,-2.98388 -3.22865,-6.57116 -3.79389,-7.44959 -4.17801,-8.98228 -2.37997,-9.49644 4.63398,-1.32513 9.187,-2.50904 11.77544,-3.06194 l 2.12311,-0.45351 -0.18414,-2.60751 c -0.10128,-1.43412 -0.30149,-2.73653 -0.44491,-2.89424 -0.22105,-0.24306 -7.63493,1.30517 -10.33933,2.15915 -0.92809,0.29307 -2.36636,0.71005 -4.82617,1.39917 -2.01488,0.56449 -14.78752,4.75426 -15.68506,5.14513 -0.3792,0.16514 -2.93879,1.19995 -5.68799,2.29957 -7.00381,2.80139 -6.56372,2.40702 -5.99818,5.37511 0.25684,1.34796 0.53296,2.51681 0.61358,2.59743 0.0806,0.0806 0.88416,-0.1894 1.78562,-0.60006 2.97501,-1.35528 9.61849,-3.78103 10.35736,-3.78182 0.55201,-6.9e-4 1.13826,0.72344 2.44976,3.02541 4.78161,8.39284 7.08665,11.63907 7.98863,11.25054 0.30616,-0.13187 3.03868,-1.02643 6.07228,-1.98789 z m 38.39766,-1.75656 c -0.10922,-0.10922 -1.50241,-0.35745 -3.09597,-0.55162 -4.56977,-0.55681 -5.4741,-0.72472 -5.67771,-1.05417 -0.10481,-0.16957 -0.49376,-0.30832 -0.86434,-0.30832 -0.37058,0 -0.94315,-0.13792 -1.27238,-0.3065 -0.32923,-0.16858 -1.18922,-0.59518 -1.91109,-0.948 -4.25265,-2.07851 -6.74932,-5.52842 -7.05087,-9.74292 -0.26994,-3.77279 0.99408,-6.67181 4.17769,-9.58145 2.12482,-1.94196 7.20634,-4.58617 8.8135,-4.58617 0.34706,0 0.83527,-0.24611 1.08492,-0.54692 0.32948,-0.39701 0.83711,-0.49982 1.85202,-0.37511 2.18316,0.26827 12.24836,0.35614 12.49541,0.10909 0.41083,-0.41084 2.68682,-0.20307 3.36094,0.30681 0.36804,0.27837 1.02943,0.50613 1.46977,0.50613 0.44033,0 1.06997,0.13964 1.3992,0.31032 0.32922,0.17068 1.66333,0.73857 2.96468,1.26198 5.23658,2.1062 8.83752,6.70723 8.83752,11.29195 0,1.41281 -0.78037,4.63261 -1.4062,5.802 -2.24775,4.19995 -6.53299,6.91858 -12.72759,8.0746 -1.61818,0.30198 -12.19831,0.58948 -12.4495,0.3383 z m 14.78496,-2.59121 c 5.25936,-1.44171 8.45662,-4.28677 9.55457,-8.50209 1.09411,-4.20057 0.36164,-6.90169 -2.70107,-9.96071 -1.74963,-1.74752 -2.61894,-2.31087 -4.95318,-3.20983 -3.12286,-1.20268 -6.23893,-1.89711 -10.9904,-2.44925 -3.34959,-0.38924 -8.0774,0.0652 -12.34592,1.18677 -4.55162,1.19592 -9.20013,4.48136 -10.72827,7.58243 -1.03977,2.11004 -0.95498,6.35522 0.17098,8.55948 1.61421,3.16009 4.53178,5.06883 9.86697,6.4552 3.87835,1.00781 7.43967,1.32209 13.75815,1.21416 4.45663,-0.0761 6.06331,-0.24435 8.36817,-0.87616 z m -13.94156,-5.13191 c -4.54296,-1.56993 -6.68829,-5.46989 -5.09999,-9.27123 0.74095,-1.77333 1.4484,-2.47542 3.43412,-3.40812 4.10043,-1.92598 10.87881,0.0372 12.77249,3.69918 1.18708,2.29555 0.21562,6.7245 -1.78725,8.14818 -2.17268,1.54438 -6.2139,1.90517 -9.31937,0.83199 z m 7.42543,-1.57987 c 1.23198,-0.63709 1.81477,-1.35644 2.35493,-2.90678 0.58833,-1.68856 0.52463,-2.39533 -0.35659,-3.95635 -0.67394,-1.19385 -1.18637,-1.57215 -4.10425,-3.02997 -0.32923,-0.16449 -1.70425,-0.29907 -3.0556,-0.29907 -3.15636,0 -4.81144,0.84927 -5.81474,2.98369 -0.83171,1.76938 -0.85063,2.08936 -0.21351,3.6102 0.59486,1.41995 1.70033,2.49065 3.497,3.38702 1.69282,0.84455 6.22729,0.96908 7.69276,0.21126 z"
         style="fill:#000000;fill-opacity:1;stroke:#000000;stroke-width:0;stroke-dasharray:none;stroke-opacity:1"
         id="path2456" />
      <path
         style="fill:#ffffff;fill-opacity:1;stroke:#ffffff;stroke-width:0.5;stroke-linejoin:round;stroke-dasharray:none;stroke-opacity:1;paint-order:fill markers stroke"
         d="m 342.89446,509.31687 c -0.62938,-0.71947 -2.56245,-3.69223 -4.29571,-6.60615 -1.73327,-2.91391 -3.40489,-5.53617 -3.71472,-5.82724 l -0.56333,-0.52922 -2.47285,0.79165 c -1.36007,0.4354 -4.09639,1.4509 -6.08071,2.25667 -1.98432,0.80577 -3.64737,1.42552 -3.69566,1.37723 -0.0483,-0.0483 -0.27347,-1.05092 -0.5004,-2.22805 -0.4677,-2.4261 -0.40067,-2.62308 1.16219,-3.41535 2.46335,-1.24873 12.10285,-4.93923 17.64173,-6.75415 11.97015,-3.92227 22.7543,-6.72796 23.3955,-6.08676 0.21574,0.21574 0.75846,4.8087 0.59424,5.02908 -0.0306,0.041 -1.27826,0.35076 -2.77266,0.68832 -4.9257,1.11261 -11.379,2.93473 -11.76662,3.32235 -0.84122,0.84122 0.0518,3.30641 4.19544,11.58149 1.10488,2.2065 1.97404,4.04146 1.93148,4.07769 -0.19609,0.16689 -11.20113,3.63057 -11.5353,3.63057 -0.20807,0 -0.89325,-0.58866 -1.52262,-1.30813 z"
         id="path5521" />
      <path
         style="fill:#ffffff;fill-opacity:1;stroke:#ffffff;stroke-width:0.125;stroke-linejoin:round;stroke-dasharray:none;stroke-opacity:1;paint-order:fill markers stroke"
         d="m 388.12302,505.11818 c -4.07715,-0.33597 -8.64762,-1.50084 -11.47735,-2.92521 -1.62431,-0.8176 -3.80661,-2.90885 -4.53452,-4.3453 -1.34193,-2.64818 -1.33507,-6.81846 0.015,-9.1222 0.81744,-1.39485 3.27111,-3.61859 5.36599,-4.86314 6.5662,-3.9009 17.45491,-4.44947 26.73245,-1.34676 3.34828,1.11977 4.24718,1.65274 6.34578,3.76245 2.84124,2.85629 3.65436,5.40879 2.83508,8.89975 -0.58947,2.51171 -1.34317,3.90847 -3.01822,5.59336 -1.68486,1.69478 -3.64194,2.75453 -6.63724,3.59408 -3.11488,0.87305 -10.09068,1.20918 -15.62698,0.75297 z m 8.17717,-5.27398 c 2.70835,-0.57406 4.07286,-1.70528 4.8389,-4.01164 0.67026,-2.01796 0.58107,-4.41296 -0.21494,-5.77124 -2.51455,-4.29076 -10.74456,-5.57949 -14.64925,-2.29391 -1.88372,1.58504 -2.61534,5.15798 -1.5408,7.5246 1.61015,3.54629 6.75621,5.57168 11.56609,4.55219 z"
         id="path5799" />
      <path
         style="fill:#ffffff;fill-opacity:1;stroke:#ffffff;stroke-width:0.125;stroke-linejoin:round;stroke-dasharray:none;stroke-opacity:1;paint-order:fill markers stroke"
         d="m 446.375,514.75279 c -4.10139,-0.78759 -6.67514,-1.47249 -9.3053,-2.47619 -2.56296,-0.97806 -6.21126,-2.77748 -7.76148,-3.82811 -1.54381,-1.04628 -3.68785,-3.19916 -4.40538,-4.42353 -0.5832,-0.99516 -1.08279,-2.39996 -0.8535,-2.39996 0.93672,0 11.78467,1.3314 12.32566,1.51277 0.53985,0.18098 0.99423,0.67786 1.62165,1.7733 1.08643,1.89687 3.16562,3.82401 5.12835,4.75332 2.55565,1.21004 3.47659,0.81511 3.88125,-1.66439 0.27719,-1.6984 0.3712,-4.58088 0.15642,-4.79567 -0.0784,-0.0783 -2.03137,-0.45732 -4.34006,-0.84218 -5.30498,-0.88433 -6.04272,-1.05487 -8.65954,-2.00175 -2.6557,-0.96094 -5.23174,-2.73995 -6.94786,-4.79817 -1.45712,-1.7476 -3.21049,-5.2353 -4.24165,-8.43723 -0.60864,-1.88998 -0.64071,-2.14953 -0.28991,-2.34677 0.37188,-0.20909 10.2198,0.16143 13.55464,0.50999 l 1.45628,0.15221 0.41651,2.15479 c 1.01767,5.26481 2.07586,7.9079 3.89387,9.72591 3.64354,3.64354 6.33607,0.21393 5.15774,-6.56969 -0.25382,-1.46123 -0.30519,-2.33394 -0.14673,-2.49241 0.26024,-0.26023 4.15337,0.17035 10.26853,1.1357 l 3.40949,0.53823 0.15026,0.90852 c 0.39463,2.38613 -0.0129,11.19159 -0.72702,15.70659 -0.88664,5.60624 -2.46907,7.42157 -7.36759,8.45201 -2.25105,0.47352 -2.71474,0.45553 -6.37463,-0.24729 z"
         id="path5801" />
      <path
         style="fill:#ffffff;fill-opacity:1;stroke:#ffffff;stroke-width:0.125;stroke-linejoin:round;stroke-dasharray:none;stroke-opacity:1;paint-order:fill markers stroke"
         d="m 456.64777,552.91465 c -0.18779,-0.36556 -1.31637,-4.0959 -2.50795,-8.28965 -1.19158,-4.19375 -2.44175,-8.50268 -2.77816,-9.57541 -0.76349,-2.43455 -0.76268,-2.77552 0.007,-3.12641 0.55345,-0.25217 0.74203,-0.17568 1.77836,0.72125 0.63759,0.55183 1.28712,0.96217 1.4434,0.91186 0.15628,-0.0503 0.50915,-0.47256 0.78415,-0.93832 0.92403,-1.56503 2.73416,-3.15316 4.28068,-3.75569 4.00786,-1.56147 6.98396,-0.1761 9.23829,4.30039 1.06057,2.10601 6.38636,14.28756 6.38636,14.78767 0,0.29843 -3.23141,1.33046 -3.40279,1.12275 -0.0332,-0.0402 -0.71306,-1.87309 -1.51087,-4.07309 -1.78775,-4.92985 -3.93877,-10.15239 -4.75554,-11.54616 -0.73719,-1.25799 -1.62451,-1.92854 -3.06539,-2.31653 -2.10319,-0.56633 -5.14314,0.9956 -6.85022,3.51964 -0.59737,0.88326 -0.71756,1.28498 -0.62621,2.09305 0.0622,0.55 1.15537,4.29852 2.42932,8.33005 1.39539,4.41584 2.53497,7.37652 2.3976,7.51389 -0.12542,0.12542 -1.07056,0.43268 -1.7222,0.62879 -1.18138,0.35555 -1.18581,0.35465 -1.52626,-0.30808 z"
         id="path5803" />
      <path
         style="fill:#ffffff;fill-opacity:1;stroke:#ffffff;stroke-width:0.125;stroke-linejoin:round;stroke-dasharray:none;stroke-opacity:1;paint-order:fill markers stroke"
         d="m 431.40852,558.47838 c -3.36131,-0.81359 -6.02832,-2.96776 -7.48728,-6.04755 -0.7811,-1.64887 -1.19399,-1.70557 -1.19399,-5.26164 0,-3.55607 0.41285,-3.70115 1.19399,-5.35002 2.08823,-4.40814 6.31779,-6.63957 11.27742,-5.94975 2.12034,0.29491 3.63832,0.93788 5.14076,2.44032 1.17429,1.17429 2.24394,3.88081 2.66634,5.46329 0.18244,0.68351 0.20067,1.18173 0.17569,1.22306 -0.01,0.016 -0.3538,0.0743 -0.79384,0.17234 -0.43697,0.0974 -3.23761,0.594 -6.26261,1.15482 -3.025,0.56082 -6.31574,1.14957 -7.31275,1.30834 -0.99702,0.15877 -2.0518,0.48224 -2.34397,0.71882 -0.51946,0.42063 -0.52226,0.46097 -0.12639,1.82268 0.77476,2.6651 3.02047,5.12274 5.23112,5.7248 2.31883,0.63151 6.79143,-0.20497 9.03516,-1.6898 l 0.98381,-0.65105 0.74271,0.83124 0.74272,0.83125 -0.84686,0.70699 c -1.05425,0.88013 -3.9942,2.02839 -6.53251,2.55142 -2.25662,0.46499 -2.37026,0.465 -4.28952,4.5e-4 z m 2.18014,-13.46937 c 2.86737,-0.4763 5.37043,-0.99632 5.56237,-1.15561 0.86667,-0.71927 -0.20375,-3.23043 -1.94225,-4.55645 -1.40443,-1.07121 -4.2298,-1.4757 -6.29746,-0.90158 -2.04181,0.56695 -4.66132,4.02893 -4.66132,6.16046 0,0.54221 0.075,1.06084 0.16667,1.1525 0.32267,0.32268 2.00968,0.15819 7.17199,-0.69932 z"
         id="path5805" />
      <path
         style="fill:#ffffff;fill-opacity:1;stroke:#ffffff;stroke-width:0.125;stroke-linejoin:round;stroke-dasharray:none;stroke-opacity:1;paint-order:fill markers stroke"
         d="m 404.49988,559.8125 c -1.71532,-2.96141 -9.81238,-20.1005 -9.81238,-20.83993 0,-0.11779 0.95484,-0.0246 1.85451,0.016 l 1.66702,0.0427 1.77661,4.21875 c 2.04371,4.85301 4.32194,9.88545 4.59445,10.3125 0.28992,0.45432 1.28082,0.38259 1.72688,-0.125 0.31258,-0.35569 3.56403,-9.82474 4.70432,-13.40727 0.42486,-1.33479 0.96485,-1.93803 2.04121,-1.7361 0.48675,0.0913 1.41625,0.10533 1.41625,0.18393 0,0.36909 -3.49644,10.40662 -5.17417,14.644 -1.76574,4.45965 -3.65388,8.00294 -3.91767,8.00294 -0.0642,0 -0.4589,-0.59063 -0.87703,-1.3125 z"
         id="path5807" />
      <path
         style="fill:#ffffff;fill-opacity:1;stroke:#ffffff;stroke-width:0.125;stroke-linejoin:round;stroke-dasharray:none;stroke-opacity:1;paint-order:fill markers stroke"
         d="m 384.22982,560.1203 c -0.94971,-0.32003 -1.61849,-0.76134 -2.23664,-1.47592 -0.485,-0.56066 -1.07936,-1.01938 -1.32081,-1.01938 -0.24145,0 -0.98322,0.27578 -1.64838,0.61284 -4.36349,2.21115 -10.10775,0.74051 -11.66458,-2.98635 -0.88016,-2.10702 -0.40334,-4.27636 1.36058,-6.18998 1.45581,-1.57937 3.2381,-2.39624 5.95922,-2.73128 2.17323,-0.26758 5.63247,-0.0515 6.88329,0.42988 0.37598,0.1447 0.43664,0.0152 0.43139,-0.92086 -0.0149,-2.65926 -0.90874,-4.54331 -2.60866,-5.49871 -1.45376,-0.81706 -4.49941,-0.93222 -6.45773,-0.24417 l -1.4475,0.50858 -0.20662,-0.55248 c -0.6251,-1.67145 -0.64386,-1.62194 0.77653,-2.04941 2.87478,-0.86515 6.10943,-0.72815 8.60569,0.3645 1.25191,0.54797 2.97885,2.068 3.53749,3.11365 0.55167,1.0326 0.72119,7.13378 0.32005,11.51879 -0.32934,3.60007 -0.14779,4.62073 1.11676,6.27865 0.34106,0.44714 0.6201,0.86471 0.6201,0.92792 0,0.3511 -0.82701,0.31578 -2.02018,-0.0863 z m -5.8267,-3.35739 c 2.49591,-0.75546 2.85558,-1.41909 3.21206,-5.92658 l 0.15135,-1.91366 -1.19577,-0.46134 c -1.80505,-0.6964 -5.83535,-0.64912 -7.21153,0.0846 -4.66371,2.48647 -4.34066,7.34227 0.57014,8.56991 1.15604,0.28899 2.77486,0.16129 4.47375,-0.35292 z"
         id="path5809" />
      <path
         style="fill:#ffffff;fill-opacity:1;stroke:#ffffff;stroke-width:0.125;stroke-linejoin:round;stroke-dasharray:none;stroke-opacity:1;paint-order:fill markers stroke"
         d="m 347.625,554.12658 c -5.70114,-0.79121 -9.87308,-4.40562 -10.25806,-9.17897 -0.46909,-5.81618 3.94135,-11.36359 9.54898,-12.34794 4.10739,-0.72101 8.77339,1.3318 10.778,4.74177 0.63673,1.08311 1.11858,1.72424 1.11858,4.46164 0,2.27409 -0.3963,3.22822 -0.6875,3.51127 -0.3293,0.32003 -1.47393,-0.26788 -8.04088,-1.89683 -4.1131,-1.02026 -7.7286,-2.04252 -8.11082,-2.04252 -1.02606,0 -1.4733,0.8109 -1.4733,2.67125 0,3.26185 1.56955,5.68563 4.60019,7.10384 1.53038,0.71615 5.2209,0.70473 5.90404,0.79022 l 2.25622,0.29404 0.30927,0.71209 c 0,0 0.48849,0.97032 0.27144,1.18749 -0.35269,0.35284 -4.15888,0.27814 -6.21615,-0.007 z m 8.07515,-13.47248 c -0.10007,-1.72869 -0.21225,-2.10437 -0.91275,-3.05691 -2.02418,-2.75245 -5.66602,-3.66415 -8.92987,-2.23551 -2.03279,0.88979 -3.67408,3.30717 -2.82097,4.15488 0.66114,0.65695 9.89215,3.0478 11.93306,3.09069 l 0.84462,0.0177 z"
         id="path5811" />
      <path
         style="fill:#ffffff;fill-opacity:1;stroke:#ffffff;stroke-width:0.125;stroke-linejoin:round;stroke-dasharray:none;stroke-opacity:1;paint-order:fill markers stroke"
         d="m 324.1875,546.60884 c -0.23391,-0.0519 -1.39893,-0.67217 -1.9247,-0.87898 -0.81851,-0.32195 -1.02571,-0.70761 -0.88288,-1.19356 0.16859,-0.57357 1.87793,-4.19365 3.99901,-9.34893 1.41154,-3.43076 1.63522,-5.0181 0.93135,-6.60932 -1.189,-2.68794 -5.20986,-4.08359 -8.32036,-2.88802 -1.39412,0.53585 -1.42182,1.13738 -5.12744,8.77872 -1.56636,3.22999 -2.74734,5.75 -2.9462,5.75 -0.28785,0 -2.98092,-1.25707 -3.27403,-1.5187 -0.15059,-0.13441 12.84429,-25.30801 13.32121,-25.81406 0.19141,-0.20309 2.59904,0.95113 2.59904,1.23808 0,0.0798 -0.95642,1.93381 -1.89622,3.94805 -2.12383,4.55197 -2.52927,5.27322 -2.30408,5.49839 0.0987,0.0987 2.10449,-0.0977 3.5024,-0.0928 1.39791,0.005 2.29518,0.30038 2.85331,0.46554 1.44326,0.42709 3.22517,1.70241 3.94601,2.79387 1.75631,2.6593 1.65157,4.38646 -0.89842,11.1691 -2.51855,6.69899 -2.87485,8.85872 -3.43738,8.73384 z"
         id="path5813" />
    </g>
  </g>
  <path
     style="fill:#ffffff;fill-opacity:1;stroke:#ffffff;stroke-width:0.353553;stroke-linejoin:round;stroke-dasharray:none;stroke-opacity:1;paint-order:fill markers stroke"
     d="m 152.57969,270.82121 c -5.69369,-3.64905 -8.23835,-16.73844 -4.14233,-21.30759 0.74202,-0.82773 3.57651,-3.03203 6.29887,-4.89844 2.72236,-1.86642 7.95013,-6.11828 11.61726,-9.44859 3.66713,-3.33031 6.80435,-5.91827 6.9716,-5.75102 0.16725,0.16725 -0.57104,2.59428 -1.64064,5.3934 -3.41974,8.94936 -6.03982,18.50941 -6.75292,24.63981 -0.82945,7.1306 -1.64786,9.02576 -4.81979,11.16099 -2.92713,1.97043 -4.70939,2.02047 -7.53205,0.21144 z"
     id="path6123" />
  <path
     style="fill:#ffffff;fill-opacity:1;stroke:#ffffff;stroke-width:0.353553;stroke-linejoin:round;stroke-dasharray:none;stroke-opacity:1;paint-order:fill markers stroke"
     d="m 733.38609,242.17484 c -10.62841,-2.01489 -19.58173,-6.45499 -24.87718,-12.33702 -2.71198,-3.01237 -6.09846,-9.31538 -6.11157,-11.37502 -0.004,-0.64104 1.8012,-1.93453 4.41251,-3.16159 12.35374,-5.80504 18.97377,-18.56244 20.08741,-38.71025 l 0.45924,-8.3085 h 3.56202 c 3.2127,0 3.43032,0.0963 2.21905,0.982 -0.73863,0.5401 -1.79908,0.80697 -2.35656,0.59304 -0.82087,-0.315 -0.92075,0.13692 -0.5253,2.37676 2.15299,12.19438 7.31219,17.997 27.29273,30.69643 13.17302,8.37264 19.0882,15.13596 19.0882,21.82512 0,12.16469 -12.08235,11.05579 -33.02723,-3.03118 -3.80837,-2.56141 -8.95608,-6.13739 -11.43937,-7.94663 -2.4833,-1.80925 -4.39249,-2.94116 -4.24265,-2.51536 0.14984,0.4258 4.76687,5.48701 10.26005,11.24714 8.33478,8.73979 10.99481,11.05804 16.0738,14.00848 3.34741,1.94454 6.09199,3.71953 6.09907,3.94442 0.0275,0.8738 -7.74435,2.19408 -14.48281,2.46034 -4.40192,0.17392 -9.11711,-0.10849 -12.49141,-0.74818 z"
     id="path6125" />
  <path
     style="fill:#ffffff;fill-opacity:1;stroke:#ffffff;stroke-width:0.353553;stroke-linejoin:round;stroke-dasharray:none;stroke-opacity:1;paint-order:fill markers stroke"
     d="m 716.92622,267.12007 c -0.60542,-0.86435 -1.10076,-2.79653 -1.10076,-4.29372 0,-1.49719 -0.81184,-6.24736 -1.80409,-10.55592 -0.99225,-4.30857 -1.7082,-8.90205 -1.59099,-10.20774 l 0.2131,-2.37398 5.3033,3.44049 c 8.36806,5.42875 10.62237,8.50901 10.59107,14.47152 -0.019,3.61592 -2.08387,8.37876 -4.30792,9.93655 -2.41845,1.69395 -5.96698,1.49125 -7.30371,-0.4172 z"
     id="path6127" />
</svg>
