<?xml version="1.0" encoding="utf-8"?><svg version="1.1" id="Layer_1" xmlns="http://www.w3.org/2000/svg" x="0px" y="0px" viewBox="0 0 55.2 38.4" xml:space="preserve" enable-background="new 0 0 55.2 38.4"><style type="text/css">.st0{fill:#fefefe}.st1{fill:#c8102e}.st2{fill:#012169}</style><path class="st0" d="M2.87,38.4h49.46c1.59-0.09,2.87-1.42,2.87-3.03V3.03c0-1.66-1.35-3.02-3.01-3.03H3.01 C1.35,0.01,0,1.37,0,3.03v32.33C0,36.98,1.28,38.31,2.87,38.4L2.87,38.4z"/><path class="st1" d="M23.74 23.03 23.74 38.4 31.42 38.4 31.42 23.03 55.2 23.03 55.2 15.35 31.42 15.35 31.42 0 23.74 0 23.74 15.35 0 15.35 0 23.03 23.74 23.03z"/><path class="st2" d="M33.98 12.43V0h18.23c1.26.02 2.34.81 2.78 1.92L33.98 12.43 33.98 12.43zM33.98 25.97V38.4h18.35c1.21-.07 2.23-.85 2.66-1.92L33.98 25.97 33.98 25.97zM21.18 25.97V38.4H2.87c-1.21-.07-2.24-.85-2.66-1.94L21.18 25.97 21.18 25.97zM21.18 12.43V0H2.99C1.73.02.64.82.21 1.94L21.18 12.43 21.18 12.43zM0 12.8 7.65 12.8 0 8.97 0 12.8zM55.2 12.8 47.51 12.8 55.2 8.95 55.2 12.8zM55.2 25.6 47.51 25.6 55.2 29.45 55.2 25.6zM0 25.6 7.65 25.6 0 29.43 0 25.6z"/><path class="st1" d="M55.2 3.25 36.15 12.8 40.41 12.8 55.2 5.4 55.2 3.25zM19.01 25.6 14.75 25.6 0 32.98 0 35.13 19.05 25.6 19.01 25.6zM10.52 12.81 14.78 12.81 0 5.41 0 7.55 10.52 12.81zM44.63 25.59 40.37 25.59 55.2 33.02 55.2 30.88 44.63 25.59z"/></svg>