<?xml version="1.0" encoding="UTF-8" standalone="no"?>
<svg
   version="1.1"
   width="256"
   height="256"
   viewBox="0 0 256 256"
   xml:space="preserve"
   id="svg3"
   sodipodi:docname="plUsr.svg"
   inkscape:version="1.3.2 (091e20e, 2023-11-25, custom)"
   xmlns:inkscape="http://www.inkscape.org/namespaces/inkscape"
   xmlns:sodipodi="http://sodipodi.sourceforge.net/DTD/sodipodi-0.dtd"
   xmlns="http://www.w3.org/2000/svg"
   xmlns:svg="http://www.w3.org/2000/svg"><sodipodi:namedview
   id="namedview3"
   pagecolor="#ffffff"
   bordercolor="#000000"
   borderopacity="0.25"
   inkscape:showpageshadow="2"
   inkscape:pageopacity="0.0"
   inkscape:pagecheckerboard="0"
   inkscape:deskcolor="#d1d1d1"
   inkscape:zoom="2.3125"
   inkscape:cx="105.2973"
   inkscape:cy="127.13514"
   inkscape:window-width="1440"
   inkscape:window-height="830"
   inkscape:window-x="-6"
   inkscape:window-y="-6"
   inkscape:window-maximized="1"
   inkscape:current-layer="g3" />

<defs
   id="defs1">
</defs>
<g
   style="stroke: none; stroke-width: 0; stroke-dasharray: none; stroke-linecap: butt; stroke-linejoin: miter; stroke-miterlimit: 10; fill: none; fill-rule: nonzero; opacity: 1;"
   transform="translate(1.4065934065934016 1.4065934065934016) scale(2.81 2.81)"
   id="g3">
	<path
   d="M 45 88 c -11.049 0 -21.18 -2.003 -29.021 -8.634 C 6.212 71.105 0 58.764 0 45 C 0 20.187 20.187 0 45 0 c 24.813 0 45 20.187 45 45 c 0 13.765 -6.212 26.105 -15.979 34.366 C 66.181 85.998 56.049 88 45 88 z"
   style="stroke:#4d4d4d;stroke-width:0.21352313;stroke-dasharray:none;stroke-linecap:butt;stroke-linejoin:miter;stroke-miterlimit:10;fill:#000000;fill-rule:nonzero;opacity:1;stroke-opacity:1"
   transform=" matrix(1 0 0 1 0 0) "
   stroke-linecap="round"
   id="path1" /><path
   d="m 44.988035,86.665843 c -10.785129,0 -20.674182,-1.955165 -28.327924,-8.427804 C 7.1263656,70.174322 1.0627197,58.128048 1.0627197,44.692758 c 0,-24.220419 19.7048963,-43.92531554 43.9253153,-43.92531554 24.220419,0 43.925316,19.70489654 43.925316,43.92531554 0,13.436266 -6.063646,25.481564 -15.597392,33.545281 -7.652766,6.473615 -17.542795,8.427804 -28.327924,8.427804 z"
   style="fill:#d6d6d6;fill-rule:nonzero;stroke:#4d4d4d;stroke-width:0.208424;stroke-linecap:butt;stroke-linejoin:miter;stroke-miterlimit:10;stroke-dasharray:none;stroke-opacity:1"
   stroke-linecap="round"
   id="path1-2" />
	<path
   d="M 45 60.71 c -11.479 0 -20.818 -9.339 -20.818 -20.817 c 0 -11.479 9.339 -20.818 20.818 -20.818 c 11.479 0 20.817 9.339 20.817 20.818 C 65.817 51.371 56.479 60.71 45 60.71 z"
   style="stroke:none;stroke-width:1;stroke-dasharray:none;stroke-linecap:butt;stroke-linejoin:miter;stroke-miterlimit:10;fill:#000000;fill-rule:nonzero;opacity:1"
   transform=" matrix(1 0 0 1 0 0) "
   stroke-linecap="round"
   id="path2" />
	<path
   d="M 45,87.845532 C 34.387,87.845532 24.078,86.227 15.972,79.375 15.324,78.827 15.092,77.931 15.393,77.138 20.034,64.919 31.933,56.71 45,56.71 c 13.067,0 24.966,8.209 29.607,20.428 0.301,0.793 0.069,1.689 -0.579,2.237 C 65.922,86.227 55.613,87.845532 45,87.845532 Z"
   style="opacity:1;fill:#000000;fill-rule:nonzero;stroke:none;stroke-width:1;stroke-linecap:butt;stroke-linejoin:miter;stroke-miterlimit:10;stroke-dasharray:none"
   stroke-linecap="round"
   id="path3"
   sodipodi:nodetypes="sccsccs" />
<path
   d="m 45.084142,60.226478 c -11.182001,0 -20.279371,-9.097369 -20.279371,-20.278396 0,-11.182001 9.09737,-20.27937 20.279371,-20.27937 11.182001,0 20.278396,9.097369 20.278396,20.27937 0,11.181027 -9.096395,20.278396 -20.278396,20.278396 z"
   style="stroke:none;stroke-width:0.974127;stroke-dasharray:none;stroke-linecap:butt;stroke-linejoin:miter;stroke-miterlimit:10;fill:#a5a4a4;fill-rule:nonzero;opacity:1"
   stroke-linecap="round"
   id="path2-9" /><path
   d="m 44.965369,87.536889 c -10.298265,0 -20.301545,-1.570534 -28.167156,-8.219333 C 16.16943,78.785807 15.94431,77.916378 16.236383,77.146895 20.739752,65.290257 32.285878,57.3247 44.965369,57.3247 c 12.67949,0 24.225618,7.965557 28.728986,19.822195 0.292074,0.769483 0.06695,1.638912 -0.56183,2.170661 -7.865611,6.648799 -17.868891,8.219333 -28.167156,8.219333 z"
   style="fill:#a5a4a4;fill-rule:nonzero;stroke:none;stroke-width:0.970344;stroke-linecap:butt;stroke-linejoin:miter;stroke-miterlimit:10;stroke-dasharray:none"
   stroke-linecap="round"
   id="path3-1"
   sodipodi:nodetypes="sccsccs" /></g>
</svg>
