<?xml version="1.0" encoding="UTF-8" standalone="no"?>
<svg
   width="16"
   height="16"
   fill="red"
   class="bi bi-x-circle-fill"
   viewBox="0 0 16 16"
   version="1.1"
   id="svg4"
   sodipodi:docname="x-circle-red.svg"
   inkscape:version="1.2.2 (732a01da63, 2022-12-09)"
   xmlns:inkscape="http://www.inkscape.org/namespaces/inkscape"
   xmlns:sodipodi="http://sodipodi.sourceforge.net/DTD/sodipodi-0.dtd"
   xmlns="http://www.w3.org/2000/svg"
   xmlns:svg="http://www.w3.org/2000/svg">
  <defs
     id="defs8" />
  <sodipodi:namedview
     id="namedview6"
     pagecolor="#ffffff"
     bordercolor="#000000"
     borderopacity="0.25"
     inkscape:showpageshadow="2"
     inkscape:pageopacity="0.0"
     inkscape:pagecheckerboard="0"
     inkscape:deskcolor="#d1d1d1"
     showgrid="false"
     inkscape:zoom="14.75"
     inkscape:cx="-4.2033898"
     inkscape:cy="4.9830508"
     inkscape:window-width="1440"
     inkscape:window-height="830"
     inkscape:window-x="-6"
     inkscape:window-y="-6"
     inkscape:window-maximized="1"
     inkscape:current-layer="svg4" />
  <path
     d="M16 8A8 8 0 1 1 0 8a8 8 0 0 1 16 0M5.354 4.646a.5.5 0 1 0-.708.708L7.293 8l-2.647 2.646a.5.5 0 0 0 .708.708L8 8.707l2.646 2.647a.5.5 0 0 0 .708-.708L8.707 8l2.647-2.646a.5.5 0 0 0-.708-.708L8 7.293z"
     id="path2"
     style="stroke:#000000;stroke-opacity:1;stroke-width:0.15;stroke-dasharray:none" />
  <path
     style="fill:#000000;fill-opacity:1;stroke:#000000;stroke-width:0.21;stroke-linejoin:round;paint-order:fill markers stroke;stroke-opacity:1;stroke-dasharray:none"
     d="m 4.7143367,11.223071 c -0.0767,-0.08475 -0.1058324,-0.189086 -0.080454,-0.288136 0.021881,-0.0854 0.6658594,-0.780103 1.4310633,-1.543784 L 7.4562253,8.0026409 6.0331974,6.5739877 C 5.0759808,5.6129871 4.6101695,5.0981919 4.6101695,5.0013167 c 0,-0.1791978 0.3075885,-0.4311549 0.4619541,-0.3784036 0.062874,0.021486 0.7473679,0.667814 1.5210967,1.4362843 L 8,7.4564163 9.4067797,6.0591974 C 10.180508,5.2907271 10.865002,4.6443991 10.927876,4.6229131 c 0.154366,-0.052751 0.461955,0.1992058 0.461955,0.3784036 0,0.096875 -0.465812,0.6116704 -1.4230284,1.572671 L 8.5437747,8.0026409 9.9350544,9.391151 c 0.7652036,0.763681 1.4091826,1.458383 1.4310636,1.543784 0.05171,0.201831 -0.144048,0.420997 -0.376034,0.420997 -0.137719,0 -0.477318,-0.30172 -1.5827128,-1.406174 L 8,8.5435837 6.5926288,9.949758 c -1.4889469,1.487681 -1.610016,1.569755 -1.8782921,1.273313 z"
     id="path923" />
</svg>
